<svg height="200" viewBox="0 0 1024 1024" width="200" xmlns="http://www.w3.org/2000/svg"><path d="m505.173333 416.426666-382.293333-389.12c-27.306667-27.306667-68.266667-27.306667-102.4 0-27.306667 27.306667-27.306667 68.266667 0 102.4l389.12 382.293334-389.12 389.12c-27.306667 27.306667-27.306667 68.266667 0 102.4 27.306667 27.306667 68.266667 27.306667 102.4 0l389.12-389.12 389.12 389.12c27.306667 27.306667 68.266667 27.306667 102.4 0 27.306667-27.306667 27.306667-68.266667 0-102.4l-395.946667-389.12 389.12-389.12c27.306667-27.306667 27.306667-68.266667 0-102.4-27.306667-27.306667-68.266667-27.306667-102.4 0z" fill="#8a8a8a"/></svg>