<svg height="32" viewBox="0 0 1024 1024" width="32" xmlns="http://www.w3.org/2000/svg"><g fill="#fff"><path d="m408.00000031 783.99999969a40.00000031 40.00000031 0 0 1 0 80.00000062h-240a103.99999969 103.99999969 0 0 1 -104.00000062-104.00000062v-528a103.99999969 103.99999969 0 0 1 104.00000062-103.99999969h559.99999969a103.99999969 103.99999969 0 0 1 103.99999969 103.99999969v176.00000062a40.00000031 40.00000031 0 0 1 -79.99999969 0v-176.00000062a24 24 0 0 0 -24-24h-559.99999969a24 24 0 0 0 -24 24v528c0 13.248 10.752 24 24 24z"/><path d="m300.896 470.46399969v37.76000062h73.44c0 68.60800031 3.648 116.16-.83200031 139.296-5.376 23.136-31.872 35.904-72.60799969 38.304-11.64799969 0-23.29600031-.79999969-35.83999969-1.60000031l-12.92800031-48.096c11.616 1.21600031 29.92000031 4.09600031 41.34400031 4.09600031 9.696 0 19.64800031-.89599969 22.78399969-13.66400062 3.13600031-12.79999969 4.48000031-22.656 4.48000031-64.92799969h-80.736v-138.36799969h80.70399938v-50.52800062h-80.70399938v-50.23999969h134.33599969v147.96799969zm107.04-110.81599969h55.968a302.23999969 302.23999969 0 0 0 -33.6-49.44l47.35999969-18.17599969c12.576 15.936 25.92 36.54400031 35.328 54.87999938l-29.31199969 12.73600031h47.136c12.54400031-20.32000031 20.28799969-48.51199969 30.144-71.64799969l59.20000031 22.20799969c-8.95999969 19.13599969-22.39999969 34.30399969-33.56800031 49.44l69.408.73600031v177.91999969l-95.04.89599969v24.384h95.04v51.29600062h-95.04v89.11999969h-64.896v-89.11999969h-96.12799969v-51.29600062h96.12799969v-26.04799969h-88.128v-177.85600031zm192.12799969 136.63999969v-28.92799969h-40.19199938v28.92799969zm-103.74399938 0v-28.92799969h-40.96000031v28.92799969zm-40.96000031-63.23199938h40.96000031v-29.02400062h-40.96000031zm104.51200031-29.02400062v29.02400062h40.19199938v-29.02400062z"/><path d="m752 864.00000031a144 144 0 1 0 0-288 144 144 0 0 0 0 288zm0 63.99999938a208.00000031 208.00000031 0 1 1 0-415.99999969 208.00000031 208.00000031 0 0 1 0 415.99999969z"/><path d="m809.95200031 658.36800031a31.99999969 31.99999969 0 0 1 43.26399938 47.16799969l-118.656 108.79999969-71.93599969-77.11999969a31.99999969 31.99999969 0 1 1 46.81600031-43.64800031l28.63999969 30.72z"/></g></svg>