<svg height="200" viewBox="0 0 1024 1024" width="200" xmlns="http://www.w3.org/2000/svg"><path d="m513.666 64.134c-17.104 0-33.904 1.032-50.431 2.977-40.505 4.583-79.33 14.702-115.828 29.397 0 0 300.947 297.82 308.96 308.891v-317.595c-8.969-3.053-18.131-5.802-27.369-8.362-36.761-9.889-75.437-15.308-115.332-15.308zm314.348 129.382c-12.064-12.064-24.703-23.215-37.756-33.556-31.916-25.352-66.504-45.735-102.66-61.085 0 0 2.215 423.265 0 436.781l224.637-224.593c-4.203-8.478-8.742-16.917-13.518-25.199-19.051-32.985-42.488-64.176-70.703-92.348zm98.607 152.785s-297.736 300.91-308.885 308.924h317.631c3.053-8.969 5.805-18.133 8.322-27.371 9.924-36.842 15.35-75.399 15.35-115.332 0-17.067-1.07-33.903-3.021-50.432-4.58-40.506-14.656-79.33-29.397-115.789zm-441.704 342.367 224.632 224.595c8.553-4.237 16.916-8.704 25.236-13.513 32.986-18.977 64.139-42.452 92.391-70.703 12.021-12.027 23.135-24.703 33.518-37.756 25.309-31.921 45.738-66.468 61.082-102.662.002 0-423.302 2.218-436.859.039zm-115.254-70.55v317.63c9.013 3.054 18.17 5.841 27.372 8.326 36.804 9.926 75.403 15.345 115.337 15.345 17.023 0 33.859-1.07 50.353-2.978 40.506-4.62 79.332-14.695 115.828-29.436.037.001-300.874-297.738-308.89-308.887zm-31.612-132.475-224.556 224.592c4.203 8.592 8.747 16.992 13.518 25.236 18.976 33.062 42.451 64.213 70.703 92.428 12.026 12.065 24.702 23.173 37.756 33.52 31.952 25.39 66.429 45.736 102.698 61.08-.001.001-2.292-423.302-.119-436.856zm-255.784-89.753c-9.888 36.804-15.307 75.402-15.307 115.336 0 17.024 1.069 33.897 3.015 50.393 4.583 40.542 14.622 79.369 29.435 115.789 0 0 297.706-300.911 308.853-308.89h-317.671c-3.054 8.931-5.803 18.132-8.325 27.372zm206.806-270.369c-33.061 19.013-64.214 42.494-92.391 70.665-12.139 12.104-23.21 24.779-33.556 37.756-25.352 31.921-45.736 66.506-61.119 102.736 0 0 423.377-2.253 436.895-.076l-224.597-224.593c-8.548 4.273-16.987 8.742-25.232 13.512z" fill="#fff"/></svg>