<svg height="200" viewBox="0 0 1024 1024" width="200" xmlns="http://www.w3.org/2000/svg"><path d="m981.8 601.5c28-48.5 42.2-100.1 42.2-153.5s-14.2-105-42.2-153.5c-26.5-45.8-64.1-86.7-111.9-121.6-96.1-70.2-223.2-108.9-357.9-108.9s-261.8 38.7-357.8 108.9c-47.8 34.9-85.4 75.9-111.9 121.6-28.1 48.5-42.3 100.1-42.3 153.5s14.2 105 42.2 153.5c26.5 45.8 64.1 86.7 111.9 121.6 96.1 70.2 223.2 108.9 357.9 108.9 47.3 0 93.6-4.8 138-14l263.1 74.4c3.2.9 6.5 1.4 9.8 1.4 10.9 0 21.4-5 28.4-13.8 9-11.5 10.2-27.3 2.9-40l-71.9-126.2c41.9-32.8 75.3-70.6 99.5-112.3zm-729.8-81.5c-39.8 0-72-32.2-72-72s32.2-72 72-72 72 32.2 72 72-32.2 72-72 72zm260 0c-39.8 0-72-32.2-72-72s32.2-72 72-72 72 32.2 72 72-32.2 72-72 72zm260 0c-39.8 0-72-32.2-72-72s32.2-72 72-72 72 32.2 72 72-32.2 72-72 72z" fill="#fff"/></svg>