<svg height="200" viewBox="0 0 1024 1024" width="200" xmlns="http://www.w3.org/2000/svg"><g fill="#fff"><path d="m315.7 832h-112c-1.1-.6-4.7-3.7-7.8-11.6-5-12.9-5-28.9-.1-41.8l47.7-124.4c13.4-34.8 36.9-57.4 59.9-57.4h94c6.1 0 11.8-3 14.9-8.2 5.5-9.2 11.5-17.7 18-25.4 8.1-9.7 3.3-24.5-8.9-27.5-7.9-1.9-15.9-2.9-24.1-2.9h-93.9c-50.5 0-96.3 37.7-119.7 98.4l-47.7 124.4c-10.8 28-10.7 60.1.2 88 5.7 14.7 14.3 27.2 24.7 36.1 12.4 10.6 27 16.2 42.4 16.2h121.3c12.2 0 20.3-12.4 15.6-23.6-.3-.8-.6-1.6-1-2.4-3-7.7-5.3-15.8-6.8-24.1-1.5-8-8.6-13.8-16.7-13.8zm34.5-321.6c43.7 0 83.4-17.2 112.7-45.1 8.8-8.4 8.3-22.7-1-30.5-4.1-3.5-8.1-7.1-11.9-10.9-7.9-7.9-20.6-8.1-28.7-.5l-.4.4c-19.1 17.7-44.3 27.5-70.3 27.6-28.5.1-55.3-11.2-75.1-31.7-18.4-19-28.9-44.5-29.2-70.9-.4-28.8 10.8-55.9 31.4-76 19.8-19.4 46.8-30 74.5-29.5 8.4.1 16.7 1.3 24.7 3.4 10.8 2.8 21.9-3.3 25.1-14 1.6-5.2 3.3-10.3 5.3-15.2 4.5-11.4-1.8-24.2-13.7-27.5-13.8-3.8-28.3-5.8-43.2-5.8-89.6 0-162.4 72.3-163.2 161.7-.9 89.9 73 164.5 163 164.5zm520.6 260.1-56.2-146.3c-26.6-69.2-78.5-112.2-135.5-112.2h-110.4c-30.2 0-59 12.1-83.4 33.7-15.5 13.8-29.2 31.5-40.3 52.4-4.4 8.2-8.3 16.9-11.8 26l-56.2 146.4c-7.4 19.2-10.2 40.6-8.4 61.5 1.1 13.1 4 26 8.7 38 3.8 9.6 8.6 18.4 14.3 26 4 5.4 8.4 10.2 13.2 14.3 13.5 11.6 29.5 17.7 46.2 17.7h346c16.7 0 32.7-6.1 46.2-17.7 11.6-9.9 21.1-23.9 27.5-40.3 11.9-31.1 12-68.3.1-99.5zm-59.9 76.2c-4.7 11.9-11 17.3-14 17.3h-346c-3 0-9.4-5.4-14-17.3-1.8-4.6-3.1-9.6-3.9-14.7-2-12.9-.8-26.8 3.8-38.6l55.9-145.6.3-.7c9.7-25.3 24-45.4 40.1-57.7 11.3-8.6 23.5-13.4 35.7-13.4h110.4c29.4 0 59.2 27.9 75.8 71.1l56 146.3c6.3 16.5 6.3 36.9-.1 53.3z"/><path d="m516.9 447.6c30.5 20.5 67.3 32.4 106.8 32.4 106 0 192-86 192-192s-86-192-192-192c-73.5 0-137.3 41.3-169.6 101.9-9.2 17.3-15.9 36.2-19.4 56.2-2 11-3 22.4-3 34 0 45.1 15.5 86.5 41.5 119.3 12.4 15.5 27.2 29.1 43.7 40.2zm16.3-250.1c24.2-24.2 56.3-37.5 90.5-37.5s66.3 13.3 90.5 37.5 37.5 56.3 37.5 90.5-13.3 66.3-37.5 90.5-56.3 37.5-90.5 37.5c-28.5 0-55.6-9.3-77.9-26.4-4.4-3.4-8.7-7.1-12.7-11.1-24.2-24.2-37.5-56.3-37.5-90.5 0-18.5 3.9-36.4 11.3-52.7 6.4-13.9 15.2-26.7 26.3-37.8z"/></g></svg>