<svg height="200" viewBox="0 0 1024 1024" width="200" xmlns="http://www.w3.org/2000/svg"><g fill="#fff"><path d="m369.536 440.8h-224.32a65.216 65.216 0 0 1 -65.12-65.184v-224.256c0-35.904 29.184-65.12 65.12-65.12h224.32c35.936 0 65.152 29.216 65.152 65.12v224.256a65.248 65.248 0 0 1 -65.152 65.184zm-224.352-297.088a7.552 7.552 0 0 0 -7.616 7.552v224.288c0 4.256 3.456 7.68 7.616 7.68h224.32a7.68 7.68 0 0 0 7.68-7.68v-224.256a7.616 7.616 0 0 0 -7.68-7.552h-224.32zm229.728 792.16h-224.32a65.184 65.184 0 0 1 -65.152-65.12v-224.32c0-35.936 29.248-65.152 65.152-65.152h224.32c35.936 0 65.088 29.216 65.088 65.152v224.32a65.12 65.12 0 0 1 -65.088 65.12zm-224.352-297.088a7.616 7.616 0 0 0 -7.68 7.648v224.192a7.68 7.68 0 0 0 7.68 7.744h224.352a7.68 7.68 0 0 0 7.584-7.744v-224.192a7.648 7.648 0 0 0 -7.584-7.648zm718.752 298.976h-224.32v-57.504h224.32a7.68 7.68 0 0 0 7.744-7.552v-224.352h57.44v224.352c0 35.84-29.248 65.056-65.184 65.056zm9.568-494.016h-224.32a65.28 65.28 0 0 1 -65.248-65.056v-224.288c0-35.936 29.312-65.184 65.248-65.184h224.32c35.872 0 64.992 29.248 64.992 65.184v224.288c0 35.84-29.12 65.056-64.992 65.056zm-224.32-297.056a7.616 7.616 0 0 0 -7.744 7.712v224.288c0 4.224 3.36 7.552 7.744 7.552h224.32a7.424 7.424 0 0 0 7.488-7.552v-224.288a7.68 7.68 0 0 0 -7.488-7.712z"/><path d="m292.256 263.456a34.88 34.88 0 0 1 -34.912 34.816c-19.232 0-34.88-15.552-34.88-34.816 0-19.232 15.648-34.912 34.88-34.912a35.008 35.008 0 0 1 34.912 34.912zm509.184 3.104a34.88 34.88 0 0 1 -34.688 34.848 34.88 34.88 0 1 1 0-69.728c19.072 0 34.688 15.552 34.688 34.88zm-4.8 493.312a34.88 34.88 0 1 1 -69.76 0c0-19.2 15.616-34.88 34.944-34.88 19.04 0 34.816 15.68 34.816 34.88zm-499.072-1.376a34.912 34.912 0 0 1 -69.792 0 34.88 34.88 0 0 1 34.88-34.816c19.232 0 34.912 15.68 34.912 34.816z"/></g></svg>