<svg height="32" viewBox="0 0 1024 1024" width="32" xmlns="http://www.w3.org/2000/svg"><path d="m153.589901 460.837028h409.573071a153.589901 153.589901 0 0 1 153.589901 153.589901v255.98317a153.589901 153.589901 0 0 1 -153.589901 153.589901h-409.573071a153.589901 153.589901 0 0 1 -153.589901-153.589901v-255.98317a153.589901 153.589901 0 0 1 153.589901-153.589901zm0 76.794951a76.794951 76.794951 0 0 0 -76.79495 76.79495v255.98317a76.794951 76.794951 0 0 0 76.79495 76.79495h409.573071a76.794951 76.794951 0 0 0 76.794951-76.79495v-255.98317a76.794951 76.794951 0 0 0 -76.794951-76.79495zm283.80854-408.702728c343.938986 13.336723 542.684319 228.157799 586.278252 596.312792a38.295082 38.295082 0 0 1 -33.636188 42.493206 38.371877 38.371877 0 0 1 -42.646796-33.508196c-38.909442-328.759185-205.17051-515.191727-508.356976-528.630843l61.691944 61.640747a38.397475 38.397475 0 0 1 -54.319628 54.319629l-120.184098-120.184098a38.218287 38.218287 0 0 1 -19.045148-34.020163c-.255983-10.136933 3.506969-20.350662 11.263259-28.081354l127.991585-127.965986a38.397475 38.397475 0 0 1 54.268432 54.319628z" fill="#fff"/></svg>